<svg xmlns="http://www.w3.org/2000/svg" viewBox="0 0 640 540" font-family="Helvetica, Arial, sans-serif" font-size="13">
  <rect width="640" height="540" fill="#ffffff"/>
  <text x="320.0" y="22" text-anchor="middle" font-size="16" font-weight="bold">Stage 9C — Delta Memory vs RAG / IKE / SFT-LoRA</text>
  <line x1="320.0" y1="280.0" x2="320.0" y2="100.0" stroke="#aaa"/>
  <line x1="320.0" y1="235.0" x2="365.0" y2="280.0" stroke="#ddd"/>
  <line x1="320.0" y1="190.0" x2="410.0" y2="280.0" stroke="#ddd"/>
  <line x1="320.0" y1="145.0" x2="455.0" y2="280.0" stroke="#ddd"/>
  <line x1="320.0" y1="100.0" x2="500.0" y2="280.0" stroke="#ddd"/>
  <text x="320.0" y="74.0" text-anchor="middle">edit success (top-1)</text>
  <line x1="320.0" y1="280.0" x2="500.0" y2="280.0" stroke="#aaa"/>
  <line x1="365.0" y1="280.0" x2="320.0" y2="325.0" stroke="#ddd"/>
  <line x1="410.0" y1="280.0" x2="320.0" y2="370.0" stroke="#ddd"/>
  <line x1="455.0" y1="280.0" x2="320.0" y2="415.0" stroke="#ddd"/>
  <line x1="500.0" y1="280.0" x2="320.0" y2="460.0" stroke="#ddd"/>
  <text x="526.0" y="280.0" text-anchor="middle">retrieval top-1</text>
  <line x1="320.0" y1="280.0" x2="320.0" y2="460.0" stroke="#aaa"/>
  <line x1="320.0" y1="325.0" x2="275.0" y2="280.0" stroke="#ddd"/>
  <line x1="320.0" y1="370.0" x2="230.0" y2="280.0" stroke="#ddd"/>
  <line x1="320.0" y1="415.0" x2="185.0" y2="280.0" stroke="#ddd"/>
  <line x1="320.0" y1="460.0" x2="140.0" y2="280.0" stroke="#ddd"/>
  <text x="320.0" y="486.0" text-anchor="middle">swap flip-rate</text>
  <line x1="320.0" y1="280.0" x2="140.0" y2="280.0" stroke="#aaa"/>
  <line x1="275.0" y1="280.0" x2="320.0" y2="235.0" stroke="#ddd"/>
  <line x1="230.0" y1="280.0" x2="320.0" y2="190.0" stroke="#ddd"/>
  <line x1="185.0" y1="280.0" x2="320.0" y2="145.0" stroke="#ddd"/>
  <line x1="140.0" y1="280.0" x2="320.0" y2="100.0" stroke="#ddd"/>
  <text x="114.0" y="280.0" text-anchor="middle">locality (1 − drift)</text>
  <polygon points="320.0,100.0 500.0,280.0 320.0,458.1 140.0,280.0" fill="#d62728" fill-opacity="0.18" stroke="#d62728" stroke-width="2"/>
  <rect x="20" y="430" width="14" height="14" fill="#d62728" fill-opacity="0.4" stroke="#d62728"/>
  <text x="40" y="441">Delta Memory (ours)</text>
  <polygon points="320.0,208.2 500.0,280.0 320.0,280.0 140.0,280.0" fill="#1f77b4" fill-opacity="0.18" stroke="#1f77b4" stroke-width="2"/>
  <rect x="20" y="450" width="14" height="14" fill="#1f77b4" fill-opacity="0.4" stroke="#1f77b4"/>
  <text x="40" y="461">vector-RAG</text>
  <polygon points="320.0,208.2 391.8,280.0 320.0,280.0 230.0,280.0" fill="#2ca02c" fill-opacity="0.18" stroke="#2ca02c" stroke-width="2"/>
  <rect x="20" y="470" width="14" height="14" fill="#2ca02c" fill-opacity="0.4" stroke="#2ca02c"/>
  <text x="40" y="481">IKE in-context</text>
  <polygon points="320.0,199.3 400.7,280.0 320.0,280.0 230.0,280.0" fill="#9467bd" fill-opacity="0.18" stroke="#9467bd" stroke-width="2"/>
  <rect x="20" y="490" width="14" height="14" fill="#9467bd" fill-opacity="0.4" stroke="#9467bd"/>
  <text x="40" y="501">SFT-LoRA on lm_head</text>
</svg>
