<svg xmlns="http://www.w3.org/2000/svg" viewBox="0 0 760 420" font-family="ui-sans-serif, -apple-system, Segoe UI, Roboto, Helvetica, Arial, sans-serif" font-size="13">
<rect width="760" height="420" fill="white"/>
<text x="380.0" y="26" text-anchor="middle" font-size="16" font-weight="600">Stage 8 closed-book recall: capacity curve (Gemma-4-E2B, frozen, GB10/CUDA)</text>
<line x1="70" y1="50" x2="70" y2="360" stroke="#333"/>
<line x1="70" y1="360" x2="580" y2="360" stroke="#333"/>
<line x1="66" y1="360.0" x2="70" y2="360.0" stroke="#333"/>
<text x="62" y="364.0" text-anchor="end">0.00</text>
<line x1="70" y1="360.0" x2="580" y2="360.0" stroke="#eee"/>
<line x1="66" y1="282.5" x2="70" y2="282.5" stroke="#333"/>
<text x="62" y="286.5" text-anchor="end">0.25</text>
<line x1="70" y1="282.5" x2="580" y2="282.5" stroke="#eee"/>
<line x1="66" y1="205.0" x2="70" y2="205.0" stroke="#333"/>
<text x="62" y="209.0" text-anchor="end">0.50</text>
<line x1="70" y1="205.0" x2="580" y2="205.0" stroke="#eee"/>
<line x1="66" y1="127.5" x2="70" y2="127.5" stroke="#333"/>
<text x="62" y="131.5" text-anchor="end">0.75</text>
<line x1="70" y1="127.5" x2="580" y2="127.5" stroke="#eee"/>
<line x1="66" y1="50.0" x2="70" y2="50.0" stroke="#333"/>
<text x="62" y="54.0" text-anchor="end">1.00</text>
<line x1="70" y1="50.0" x2="580" y2="50.0" stroke="#eee"/>
<text x="20" y="205.0" text-anchor="middle" transform="rotate(-90 20 205.0)">top-1 / recall / flip rate</text>
<line x1="123.53909201938563" y1="360" x2="123.53909201938563" y2="364" stroke="#333"/>
<text x="123.53909201938563" y="378" text-anchor="middle">N=128</text>
<line x1="365.29218159612293" y1="360" x2="365.29218159612293" y2="364" stroke="#333"/>
<text x="365.29218159612293" y="378" text-anchor="middle">N=1024</text>
<line x1="526.4609079806144" y1="360" x2="526.4609079806144" y2="364" stroke="#333"/>
<text x="526.4609079806144" y="378" text-anchor="middle">N=4096</text>
<text x="325.0" y="404" text-anchor="middle">Number of stored facts (log scale)</text>
<line x1="70" y1="111.99999999999999" x2="580" y2="111.99999999999999" stroke="#d33" stroke-dasharray="4 3" opacity="0.6"/>
<text x="576" y="107.99999999999999" text-anchor="end" fill="#d33" font-size="11">G1 gate = 0.80</text>
<path d="M 123.5,50.0 L 365.3,50.0 L 526.5,50.0" fill="none" stroke="#0a7" stroke-width="2"/>
<circle cx="123.5" cy="50.0" r="3.5" fill="#0a7" stroke="white" stroke-width="1"/>
<circle cx="365.3" cy="50.0" r="3.5" fill="#0a7" stroke="white" stroke-width="1"/>
<circle cx="526.5" cy="50.0" r="3.5" fill="#0a7" stroke="white" stroke-width="1"/>
<path d="M 123.5,59.7 L 365.3,70.6 L 526.5,100.3" fill="none" stroke="#06c" stroke-width="2"/>
<circle cx="123.5" cy="59.7" r="3.5" fill="#06c" stroke="white" stroke-width="1"/>
<circle cx="365.3" cy="70.6" r="3.5" fill="#06c" stroke="white" stroke-width="1"/>
<circle cx="526.5" cy="100.3" r="3.5" fill="#06c" stroke="white" stroke-width="1"/>
<path d="M 123.5,59.7 L 365.3,71.5 L 526.5,102.1" fill="none" stroke="#a26" stroke-width="2"/>
<circle cx="123.5" cy="59.7" r="3.5" fill="#a26" stroke="white" stroke-width="1"/>
<circle cx="365.3" cy="71.5" r="3.5" fill="#a26" stroke="white" stroke-width="1"/>
<circle cx="526.5" cy="102.1" r="3.5" fill="#a26" stroke="white" stroke-width="1"/>
<path d="M 123.5,50.0 L 365.3,50.0 L 526.5,50.0" fill="none" stroke="#c63" stroke-width="2"/>
<circle cx="123.5" cy="50.0" r="3.5" fill="#c63" stroke="white" stroke-width="1"/>
<circle cx="365.3" cy="50.0" r="3.5" fill="#c63" stroke="white" stroke-width="1"/>
<circle cx="526.5" cy="50.0" r="3.5" fill="#c63" stroke="white" stroke-width="1"/>
<path d="M 123.5,360.0 L 365.3,360.0 L 526.5,360.0" fill="none" stroke="#999" stroke-width="2"/>
<circle cx="123.5" cy="360.0" r="3.5" fill="#999" stroke="white" stroke-width="1"/>
<circle cx="365.3" cy="360.0" r="3.5" fill="#999" stroke="white" stroke-width="1"/>
<circle cx="526.5" cy="360.0" r="3.5" fill="#999" stroke="white" stroke-width="1"/>
<text x="600" y="60" font-weight="600">Channel</text>
<line x1="600" y1="78" x2="624" y2="78" stroke="#0a7" stroke-width="2"/>
<circle cx="612" cy="78" r="3.5" fill="#0a7" stroke="white" stroke-width="1"/>
<text x="630" y="82" font-size="11">Bank inject (oracle slot)</text>
<line x1="600" y1="100" x2="624" y2="100" stroke="#06c" stroke-width="2"/>
<circle cx="612" cy="100" r="3.5" fill="#06c" stroke="white" stroke-width="1"/>
<text x="630" y="104" font-size="11">Bank inject (retrieved slot)</text>
<line x1="600" y1="122" x2="624" y2="122" stroke="#a26" stroke-width="2"/>
<circle cx="612" cy="122" r="3.5" fill="#a26" stroke="white" stroke-width="1"/>
<text x="630" y="126" font-size="11">Address retrieval recall@1</text>
<line x1="600" y1="144" x2="624" y2="144" stroke="#c63" stroke-width="2"/>
<circle cx="612" cy="144" r="3.5" fill="#c63" stroke="white" stroke-width="1"/>
<text x="630" y="148" font-size="11">Swap-paired flip rate</text>
<line x1="600" y1="166" x2="624" y2="166" stroke="#999" stroke-width="2"/>
<circle cx="612" cy="166" r="3.5" fill="#999" stroke="white" stroke-width="1"/>
<text x="630" y="170" font-size="11">No-memory baseline</text>
<text x="380.0" y="408" text-anchor="middle" font-size="11" fill="#555">3 seeds pending; seed 0 reported. value-token absent at read time. Address selected by cosine over learned key projector.</text>
</svg>