<svg xmlns="http://www.w3.org/2000/svg" viewBox="0 0 720 360" font-family="ui-sans-serif, -apple-system, Segoe UI, Roboto, Helvetica, Arial, sans-serif" font-size="13">
<rect width="720" height="360" fill="white"/>
<text x="360.0" y="26" text-anchor="middle" font-size="16" font-weight="600">Stage 8.3 sequential-write interference (N=1024, frozen, GB10/CUDA)</text>
<line x1="70" y1="50" x2="70" y2="300" stroke="#333"/>
<line x1="70" y1="300" x2="520" y2="300" stroke="#333"/>
<line x1="66" y1="300.0" x2="70" y2="300.0" stroke="#333"/>
<text x="62" y="304.0" text-anchor="end">0.00</text>
<line x1="70" y1="300.0" x2="520" y2="300.0" stroke="#eee"/>
<line x1="66" y1="237.5" x2="70" y2="237.5" stroke="#333"/>
<text x="62" y="241.5" text-anchor="end">0.25</text>
<line x1="70" y1="237.5" x2="520" y2="237.5" stroke="#eee"/>
<line x1="66" y1="175.0" x2="70" y2="175.0" stroke="#333"/>
<text x="62" y="179.0" text-anchor="end">0.50</text>
<line x1="70" y1="175.0" x2="520" y2="175.0" stroke="#eee"/>
<line x1="66" y1="112.5" x2="70" y2="112.5" stroke="#333"/>
<text x="62" y="116.5" text-anchor="end">0.75</text>
<line x1="70" y1="112.5" x2="520" y2="112.5" stroke="#eee"/>
<line x1="66" y1="50.0" x2="70" y2="50.0" stroke="#333"/>
<text x="62" y="54.0" text-anchor="end">1.00</text>
<line x1="70" y1="50.0" x2="520" y2="50.0" stroke="#eee"/>
<line x1="123.57142857142857" y1="300" x2="123.57142857142857" y2="304" stroke="#333"/>
<text x="123.57142857142857" y="318" text-anchor="middle">128</text>
<line x1="177.14285714285714" y1="300" x2="177.14285714285714" y2="304" stroke="#333"/>
<text x="177.14285714285714" y="318" text-anchor="middle">256</text>
<line x1="284.2857142857143" y1="300" x2="284.2857142857143" y2="304" stroke="#333"/>
<text x="284.2857142857143" y="318" text-anchor="middle">512</text>
<line x1="391.42857142857144" y1="300" x2="391.42857142857144" y2="304" stroke="#333"/>
<text x="391.42857142857144" y="318" text-anchor="middle">768</text>
<line x1="498.57142857142856" y1="300" x2="498.57142857142856" y2="304" stroke="#333"/>
<text x="498.57142857142856" y="318" text-anchor="middle">1024</text>
<text x="20" y="175.0" text-anchor="middle" transform="rotate(-90 20 175.0)">top-1 / recall@1</text>
<text x="295.0" y="344" text-anchor="middle">Slots written so far</text>
<line x1="70" y1="99.99999999999999" x2="520" y2="99.99999999999999" stroke="#d33" stroke-dasharray="4 3" opacity="0.6"/>
<text x="516" y="95.99999999999999" text-anchor="end" fill="#d33" font-size="11">G3 gate = 0.80</text>
<path d="M 123.6,57.8 L 177.1,57.8 L 284.3,57.8 L 391.4,57.8 L 498.6,57.8" fill="none" stroke="#06c" stroke-width="2"/>
<circle cx="123.6" cy="57.8" r="3.5" fill="#06c" stroke="white" stroke-width="1"/>
<circle cx="177.1" cy="57.8" r="3.5" fill="#06c" stroke="white" stroke-width="1"/>
<circle cx="284.3" cy="57.8" r="3.5" fill="#06c" stroke="white" stroke-width="1"/>
<circle cx="391.4" cy="57.8" r="3.5" fill="#06c" stroke="white" stroke-width="1"/>
<circle cx="498.6" cy="57.8" r="3.5" fill="#06c" stroke="white" stroke-width="1"/>
<path d="M 123.6,57.8 L 177.1,58.8 L 284.3,61.7 L 391.4,63.7 L 498.6,66.6" fill="none" stroke="#a26" stroke-width="2"/>
<circle cx="123.6" cy="57.8" r="3.5" fill="#a26" stroke="white" stroke-width="1"/>
<circle cx="177.1" cy="58.8" r="3.5" fill="#a26" stroke="white" stroke-width="1"/>
<circle cx="284.3" cy="61.7" r="3.5" fill="#a26" stroke="white" stroke-width="1"/>
<circle cx="391.4" cy="63.7" r="3.5" fill="#a26" stroke="white" stroke-width="1"/>
<circle cx="498.6" cy="66.6" r="3.5" fill="#a26" stroke="white" stroke-width="1"/>
<text x="540" y="60" font-weight="600">Series</text>
<line x1="540" y1="78" x2="564" y2="78" stroke="#06c" stroke-width="2"/>
<text x="570" y="82" font-size="11">Earliest 128 slots, top-1 (retention)</text>
<line x1="540" y1="100" x2="564" y2="100" stroke="#a26" stroke-width="2"/>
<text x="570" y="104" font-size="11">All slots written so far, top-1</text>
<text x="360.0" y="350" text-anchor="middle" font-size="11" fill="#555">earliest 128 slots retain top-1=0.969 throughout. graceful decay on full pool as bank fills.</text>
</svg>