<svg xmlns="http://www.w3.org/2000/svg" width="720" height="320" viewBox="0 0 720 320" font-family="-apple-system, Segoe UI, Helvetica, Arial, sans-serif">
<rect width="720" height="320" fill="#ffffff"/>
<text x="360.0" y="24" font-size="15" font-weight="600" text-anchor="middle">Stage 11D-1 — ConvQA recall@1 vs filler turns (gate k=10 ≥ 0.85)</text>
<line x1="90" x2="690" y1="220.0" y2="220.0" stroke="#e5e7eb" stroke-width="1"/>
<text x="82" y="224.0" font-size="10" text-anchor="end" fill="#6b7280">0.00</text>
<line x1="90" x2="690" y1="177.5" y2="177.5" stroke="#e5e7eb" stroke-width="1"/>
<text x="82" y="181.5" font-size="10" text-anchor="end" fill="#6b7280">0.25</text>
<line x1="90" x2="690" y1="135.0" y2="135.0" stroke="#e5e7eb" stroke-width="1"/>
<text x="82" y="139.0" font-size="10" text-anchor="end" fill="#6b7280">0.50</text>
<line x1="90" x2="690" y1="92.5" y2="92.5" stroke="#e5e7eb" stroke-width="1"/>
<text x="82" y="96.5" font-size="10" text-anchor="end" fill="#6b7280">0.75</text>
<line x1="90" x2="690" y1="50.0" y2="50.0" stroke="#e5e7eb" stroke-width="1"/>
<text x="82" y="54.0" font-size="10" text-anchor="end" fill="#6b7280">1.00</text>
<line x1="90" x2="690" y1="75.5" y2="75.5" stroke="#dc2626" stroke-width="1.5" stroke-dasharray="4,3"/>
<text x="686" y="71.5" font-size="10" text-anchor="end" fill="#dc2626">gate 0.85</text>
<rect x="120.0" y="50.0" width="90.0" height="170.0" fill="#3b82f6" opacity="0.85"/>
<text x="165.0" y="44.0" font-size="11" text-anchor="middle" font-weight="600">1.000</text>
<text x="165.0" y="234" font-size="11" text-anchor="end" transform="rotate(-30 165.0 234)">k=1</text>
<rect x="270.0" y="50.0" width="90.0" height="170.0" fill="#3b82f6" opacity="0.85"/>
<text x="315.0" y="44.0" font-size="11" text-anchor="middle" font-weight="600">1.000</text>
<text x="315.0" y="234" font-size="11" text-anchor="end" transform="rotate(-30 315.0 234)">k=3</text>
<rect x="420.0" y="50.0" width="90.0" height="170.0" fill="#3b82f6" opacity="0.85"/>
<text x="465.0" y="44.0" font-size="11" text-anchor="middle" font-weight="600">1.000</text>
<text x="465.0" y="234" font-size="11" text-anchor="end" transform="rotate(-30 465.0 234)">k=5</text>
<rect x="570.0" y="50.0" width="90.0" height="170.0" fill="#10b981" opacity="0.85"/>
<text x="615.0" y="44.0" font-size="11" text-anchor="middle" font-weight="600">1.000</text>
<text x="615.0" y="234" font-size="11" text-anchor="end" transform="rotate(-30 615.0 234)">k=10</text>
</svg>