<svg xmlns="http://www.w3.org/2000/svg" width="1088" height="600" viewBox="0 0 1088 600" role="img">
  <style>
    .title { font: 700 28px -apple-system, BlinkMacSystemFont, "Segoe UI", sans-serif; fill: #1D1D1F; }
    .subtitle { font: 500 14px -apple-system, BlinkMacSystemFont, "Segoe UI", sans-serif; fill: #6E6E73; }
    .label { font: 600 13px -apple-system, BlinkMacSystemFont, "Segoe UI", sans-serif; fill: #1D1D1F; }
    .small { font: 500 12px -apple-system, BlinkMacSystemFont, "Segoe UI", sans-serif; fill: #6E6E73; }
    .tiny { font: 500 10px -apple-system, BlinkMacSystemFont, "Segoe UI", sans-serif; fill: #6E6E73; }
    .value { font: 700 12px -apple-system, BlinkMacSystemFont, "Segoe UI", sans-serif; fill: #1D1D1F; }
  </style>
  <text x="40" y="48" class="title">Counter-prior target lift</text>
  <text x="40" y="75" class="subtitle">Δ log-prob = Mneme attn-bank − no-memory baseline; every bar is positive on Gemma-4 and Qwen3.</text>
  <rect x="24" y="94" width="1040" height="470" rx="34" fill="#F5F5F7"/>
  <line x1="82" y1="476.0" x2="970" y2="476.0" stroke="#E8EAED" stroke-width="1"/>
  <text x="38" y="480.0" class="tiny">+0.0</text>
  <line x1="82" y1="359.3" x2="970" y2="359.3" stroke="#E8EAED" stroke-width="1"/>
  <text x="38" y="363.3" class="tiny">+1.0</text>
  <line x1="82" y1="242.7" x2="970" y2="242.7" stroke="#E8EAED" stroke-width="1"/>
  <text x="38" y="246.7" class="tiny">+2.0</text>
  <line x1="82" y1="126.0" x2="970" y2="126.0" stroke="#E8EAED" stroke-width="1"/>
  <text x="38" y="130.0" class="tiny">+3.0</text>
  <rect x="100.0" y="407.6" width="28" height="68.4" rx="7" fill="#007AFF"/>
  <text x="114.0" y="399.6" text-anchor="middle" class="tiny">+0.59</text>
  <rect x="132.0" y="390.9" width="28" height="85.1" rx="7" fill="#34C759"/>
  <text x="146.0" y="382.9" text-anchor="middle" class="tiny">+0.73</text>
  <rect x="164.0" y="386.8" width="28" height="89.2" rx="7" fill="#4285F4"/>
  <text x="178.0" y="378.8" text-anchor="middle" class="tiny">+0.76</text>
  <rect x="196.0" y="412.7" width="28" height="63.3" rx="7" fill="#34A853"/>
  <text x="210.0" y="404.7" text-anchor="middle" class="tiny">+0.54</text>
  <text x="161.0" y="510" text-anchor="middle" class="label">Napoleon</text>
  <rect x="277.6" y="315.5" width="28" height="160.5" rx="7" fill="#007AFF"/>
  <text x="291.6" y="307.5" text-anchor="middle" class="tiny">+1.38</text>
  <rect x="309.6" y="299.7" width="28" height="176.3" rx="7" fill="#34C759"/>
  <text x="323.6" y="291.7" text-anchor="middle" class="tiny">+1.51</text>
  <rect x="341.6" y="447.6" width="28" height="28.4" rx="7" fill="#4285F4"/>
  <text x="355.6" y="439.6" text-anchor="middle" class="tiny">+0.24</text>
  <rect x="373.6" y="418.1" width="28" height="57.9" rx="7" fill="#34A853"/>
  <text x="387.6" y="410.1" text-anchor="middle" class="tiny">+0.50</text>
  <text x="338.6" y="510" text-anchor="middle" class="label">Pablo</text>
  <rect x="455.2" y="337.2" width="28" height="138.8" rx="7" fill="#007AFF"/>
  <text x="469.2" y="329.2" text-anchor="middle" class="tiny">+1.19</text>
  <rect x="487.2" y="342.3" width="28" height="133.7" rx="7" fill="#34C759"/>
  <text x="501.2" y="334.3" text-anchor="middle" class="tiny">+1.15</text>
  <rect x="519.2" y="376.6" width="28" height="99.4" rx="7" fill="#4285F4"/>
  <text x="533.2" y="368.6" text-anchor="middle" class="tiny">+0.85</text>
  <rect x="551.2" y="376.3" width="28" height="99.7" rx="7" fill="#34A853"/>
  <text x="565.2" y="368.3" text-anchor="middle" class="tiny">+0.85</text>
  <text x="516.2" y="510" text-anchor="middle" class="label">Vincent</text>
  <rect x="632.8" y="394.6" width="28" height="81.4" rx="7" fill="#007AFF"/>
  <text x="646.8" y="386.6" text-anchor="middle" class="tiny">+0.70</text>
  <rect x="664.8" y="387.6" width="28" height="88.4" rx="7" fill="#34C759"/>
  <text x="678.8" y="379.6" text-anchor="middle" class="tiny">+0.76</text>
  <rect x="696.8" y="353.9" width="28" height="122.1" rx="7" fill="#4285F4"/>
  <text x="710.8" y="345.9" text-anchor="middle" class="tiny">+1.05</text>
  <rect x="728.8" y="358.1" width="28" height="117.9" rx="7" fill="#34A853"/>
  <text x="742.8" y="350.1" text-anchor="middle" class="tiny">+1.01</text>
  <text x="693.8" y="510" text-anchor="middle" class="label">Isaac</text>
  <rect x="810.4" y="163.6" width="28" height="312.4" rx="7" fill="#007AFF"/>
  <text x="824.4" y="155.6" text-anchor="middle" class="tiny">+2.68</text>
  <rect x="842.4" y="142.9" width="28" height="333.1" rx="7" fill="#34C759"/>
  <text x="856.4" y="134.9" text-anchor="middle" class="tiny">+2.86</text>
  <rect x="874.4" y="307.3" width="28" height="168.7" rx="7" fill="#4285F4"/>
  <text x="888.4" y="299.3" text-anchor="middle" class="tiny">+1.45</text>
  <rect x="906.4" y="289.9" width="28" height="186.1" rx="7" fill="#34A853"/>
  <text x="920.4" y="281.9" text-anchor="middle" class="tiny">+1.59</text>
  <text x="871.4" y="510" text-anchor="middle" class="label">Ada</text>
  <rect x="760" y="115" width="14" height="14" rx="4" fill="#007AFF"/>
  <text x="782" y="127" class="small">Gemma GB10</text>
  <rect x="760" y="139" width="14" height="14" rx="4" fill="#34C759"/>
  <text x="782" y="151" class="small">Gemma Mac</text>
  <rect x="760" y="163" width="14" height="14" rx="4" fill="#4285F4"/>
  <text x="782" y="175" class="small">Qwen3 GB10</text>
  <rect x="760" y="187" width="14" height="14" rx="4" fill="#34A853"/>
  <text x="782" y="199" class="small">Qwen3 Mac</text>
  <text x="82" y="532" class="small">Source: transcripts/v31_intervention/*-FALSE/demo.json. Base LLM frozen; identity-init K-projector.</text>

</svg>
