<svg xmlns="http://www.w3.org/2000/svg" viewBox="0 0 720 420">
<rect width="720" height="420" fill="white"/>
<text x="360.0" y="28" text-anchor="middle" font-family="system-ui" font-size="15" font-weight="600" fill="#1a1a2e">Counter-Prior Lift vs α — GPT-2 Medium (355M, 24L)</text>
<line x1="80" y1="133.28873239436618" x2="680" y2="133.28873239436618" stroke="#ccc" stroke-width="1" stroke-dasharray="6,4"/>
<text x="72" y="137.28873239436618" text-anchor="end" font-family="system-ui" font-size="10" fill="#999">0</text>
<line x1="80" y1="330.47183098591546" x2="680" y2="330.47183098591546" stroke="#eee" stroke-width="0.5"/>
<line x1="80" y1="281.17605633802816" x2="680" y2="281.17605633802816" stroke="#eee" stroke-width="0.5"/>
<line x1="80" y1="231.88028169014083" x2="680" y2="231.88028169014083" stroke="#eee" stroke-width="0.5"/>
<line x1="80" y1="182.5845070422535" x2="680" y2="182.5845070422535" stroke="#eee" stroke-width="0.5"/>
<line x1="80" y1="133.28873239436618" x2="680" y2="133.28873239436618" stroke="#eee" stroke-width="0.5"/>
<line x1="80" y1="83.99295774647885" x2="680" y2="83.99295774647885" stroke="#eee" stroke-width="0.5"/>
<path d="M80.0,315.9 L289.7,311.1 L380.0,313.0 L470.3,294.5 L589.7,301.4 L680.0,335.4" fill="none" stroke="#FF3B30" stroke-width="2"/>
<circle cx="80.0" cy="315.9" r="4" fill="#FF3B30"/>
<circle cx="289.7" cy="311.1" r="4" fill="#FF3B30"/>
<circle cx="380.0" cy="313.0" r="4" fill="#FF3B30"/>
<circle cx="470.3" cy="294.5" r="4" fill="#FF3B30"/>
<circle cx="589.7" cy="301.4" r="4" fill="#FF3B30"/>
<circle cx="680.0" cy="335.4" r="4" fill="#FF3B30"/>
<text x="86.0" y="309.9" font-family="system-ui" font-size="10" fill="#FF3B30">Residual GPT-2</text>
<path d="M80.0,116.6 L289.7,111.1 L380.0,109.7 L470.3,104.6 L589.7,105.5 L680.0,195.7" fill="none" stroke="#FF9500" stroke-width="2"/>
<circle cx="80.0" cy="116.6" r="4" fill="#FF9500"/>
<circle cx="289.7" cy="111.1" r="4" fill="#FF9500"/>
<circle cx="380.0" cy="109.7" r="4" fill="#FF9500"/>
<circle cx="470.3" cy="104.6" r="4" fill="#FF9500"/>
<circle cx="589.7" cy="105.5" r="4" fill="#FF9500"/>
<circle cx="680.0" cy="195.7" r="4" fill="#FF9500"/>
<text x="86.0" y="110.6" font-family="system-ui" font-size="10" fill="#FF9500">HC GPT-2</text>
<path d="M80.0,116.6 L289.7,111.1 L380.0,109.7 L470.3,104.6 L589.7,105.5 L680.0,195.7" fill="none" stroke="#007AFF" stroke-width="2"/>
<circle cx="80.0" cy="116.6" r="4" fill="#007AFF"/>
<circle cx="289.7" cy="111.1" r="4" fill="#007AFF"/>
<circle cx="380.0" cy="109.7" r="4" fill="#007AFF"/>
<circle cx="470.3" cy="104.6" r="4" fill="#007AFF"/>
<circle cx="589.7" cy="105.5" r="4" fill="#007AFF"/>
<circle cx="680.0" cy="195.7" r="4" fill="#007AFF"/>
<text x="86.0" y="110.6" font-family="system-ui" font-size="10" fill="#007AFF">mHC GPT-2</text>
<text x="80.0" y="376" text-anchor="middle" font-family="system-ui" font-size="9" fill="#666">α=0.10</text>
<text x="289.7" y="376" text-anchor="middle" font-family="system-ui" font-size="9" fill="#666">α=0.50</text>
<text x="380.0" y="376" text-anchor="middle" font-family="system-ui" font-size="9" fill="#666">α=1.00</text>
<text x="470.3" y="376" text-anchor="middle" font-family="system-ui" font-size="9" fill="#666">α=2.00</text>
<text x="589.7" y="376" text-anchor="middle" font-family="system-ui" font-size="9" fill="#666">α=5.00</text>
<text x="680.0" y="376" text-anchor="middle" font-family="system-ui" font-size="9" fill="#666">α=10.00</text>
<text x="360.0" y="412" text-anchor="middle" font-family="system-ui" font-size="11" fill="#666">α (injection strength)</text>
<text x="16" y="220.0" text-anchor="middle" font-family="system-ui" font-size="10" fill="#666" transform="rotate(-90,16,220.0)">Counter-Prior Lift (nats)</text>
<rect x="80" y="108.6408450704225" width="600" height="251.3591549295775" fill="#34C759" opacity="0.08"/>
<text x="676" y="122.6408450704225" text-anchor="end" font-family="system-ui" font-size="9" fill="#34C759">safe zone</text>
</svg>