<svg xmlns="http://www.w3.org/2000/svg" viewBox="0 0 640 380">
<rect width="640" height="380" fill="white"/>
<text x="320.0" y="28" text-anchor="middle" font-family="system-ui" font-size="14" font-weight="600" fill="#1a1a2e">Counter-Prior Lift vs α — GPT-2 Small (124M, 12L)</text>
<line x1="80" y1="105.52906110283158" x2="600" y2="105.52906110283158" stroke="#ccc" stroke-width="1" stroke-dasharray="6,4"/>
<path d="M80.0,137.6 L148.0,138.1 L306.0,129.2 L374.0,136.1 L442.0,125.4 L532.0,109.2 L600.0,297.6" fill="none" stroke="#FF3B30" stroke-width="2"/>
<circle cx="80.0" cy="137.6" r="3.5" fill="#FF3B30"/>
<circle cx="148.0" cy="138.1" r="3.5" fill="#FF3B30"/>
<circle cx="306.0" cy="129.2" r="3.5" fill="#FF3B30"/>
<circle cx="374.0" cy="136.1" r="3.5" fill="#FF3B30"/>
<circle cx="442.0" cy="125.4" r="3.5" fill="#FF3B30"/>
<circle cx="532.0" cy="109.2" r="3.5" fill="#FF3B30"/>
<circle cx="600.0" cy="297.6" r="3.5" fill="#FF3B30"/>
<text x="86.0" y="131.6" font-family="system-ui" font-size="9" fill="#FF3B30">Residual GPT-2</text>
<path d="M80.0,119.7 L148.0,113.9 L306.0,112.7 L374.0,102.4 L442.0,106.4 L532.0,128.2 L600.0,150.1" fill="none" stroke="#FF9500" stroke-width="2"/>
<circle cx="80.0" cy="119.7" r="3.5" fill="#FF9500"/>
<circle cx="148.0" cy="113.9" r="3.5" fill="#FF9500"/>
<circle cx="306.0" cy="112.7" r="3.5" fill="#FF9500"/>
<circle cx="374.0" cy="102.4" r="3.5" fill="#FF9500"/>
<circle cx="442.0" cy="106.4" r="3.5" fill="#FF9500"/>
<circle cx="532.0" cy="128.2" r="3.5" fill="#FF9500"/>
<circle cx="600.0" cy="150.1" r="3.5" fill="#FF9500"/>
<text x="86.0" y="113.7" font-family="system-ui" font-size="9" fill="#FF9500">HC GPT-2</text>
<path d="M80.0,119.7 L148.0,113.9 L306.0,112.7 L374.0,102.4 L442.0,106.4 L532.0,128.2 L600.0,150.1" fill="none" stroke="#007AFF" stroke-width="2"/>
<circle cx="80.0" cy="119.7" r="3.5" fill="#007AFF"/>
<circle cx="148.0" cy="113.9" r="3.5" fill="#007AFF"/>
<circle cx="306.0" cy="112.7" r="3.5" fill="#007AFF"/>
<circle cx="374.0" cy="102.4" r="3.5" fill="#007AFF"/>
<circle cx="442.0" cy="106.4" r="3.5" fill="#007AFF"/>
<circle cx="532.0" cy="128.2" r="3.5" fill="#007AFF"/>
<circle cx="600.0" cy="150.1" r="3.5" fill="#007AFF"/>
<text x="86.0" y="113.7" font-family="system-ui" font-size="9" fill="#007AFF">mHC GPT-2</text>
<text x="80.0" y="334" text-anchor="middle" font-family="system-ui" font-size="8" fill="#666">α=0.05</text>
<text x="148.0" y="334" text-anchor="middle" font-family="system-ui" font-size="8" fill="#666">α=0.10</text>
<text x="306.0" y="334" text-anchor="middle" font-family="system-ui" font-size="8" fill="#666">α=0.50</text>
<text x="374.0" y="334" text-anchor="middle" font-family="system-ui" font-size="8" fill="#666">α=1.00</text>
<text x="442.0" y="334" text-anchor="middle" font-family="system-ui" font-size="8" fill="#666">α=2.00</text>
<text x="532.0" y="334" text-anchor="middle" font-family="system-ui" font-size="8" fill="#666">α=5.00</text>
<text x="600.0" y="334" text-anchor="middle" font-family="system-ui" font-size="8" fill="#666">α=10.00</text>
<text x="320.0" y="374" text-anchor="middle" font-family="system-ui" font-size="10" fill="#666">α (injection strength)</text>
</svg>