<svg xmlns="http://www.w3.org/2000/svg" viewBox="0 0 640 400">
<rect width="640" height="400" fill="white"/>
<text x="320.0" y="22" text-anchor="middle" font-family="system-ui" font-size="14" fill="#1a1a2e">mHC Shield: Counter-Prior Lift vs NLL Drift — Gemma-4-E2B</text>
<line x1="40" y1="350" x2="600" y2="350" stroke="#ccc" stroke-width="1"/>
<line x1="40" y1="350" x2="40" y2="70" stroke="#ccc" stroke-width="1"/>
<line x1="40" y1="337.94974631836436" x2="600" y2="337.94974631836436" stroke="#FF3B30" stroke-width="1" stroke-dasharray="4,4"/>
<text x="604" y="341.94974631836436" font-family="system-ui" font-size="10" fill="#FF3B30">0.5 nats</text>
<path d="M576.5262522623525,264.0816430050121 L576.5262522623525,264.0816430050121 L590.7256197246016,266.4517714064709 L495.84535830027795,267.0014378328687 L274.70699362046906,151.12757823082657 L236.97626920886762,135.40114596256007 L456.9923516495629,144.79483881312046 L521.7460896426946,70.0" fill="none" stroke="#FF3B30" stroke-width="1.5" opacity="0.5"/>
<circle cx="576.5262522623525" cy="264.0816430050121" r="4" fill="#FF3B30"/>
<text x="582.5262522623525" y="260.0816430050121" font-family="system-ui" font-size="9" fill="#FF3B30">α=0.05</text>
<circle cx="590.7256197246016" cy="266.4517714064709" r="4" fill="#FF3B30"/>
<circle cx="495.84535830027795" cy="267.0014378328687" r="4" fill="#FF3B30"/>
<circle cx="274.70699362046906" cy="151.12757823082657" r="4" fill="#FF3B30"/>
<circle cx="236.97626920886762" cy="135.40114596256007" r="4" fill="#FF3B30"/>
<circle cx="456.9923516495629" cy="144.79483881312046" r="4" fill="#FF3B30"/>
<circle cx="521.7460896426946" cy="70.0" r="4" fill="#FF3B30"/>
<text x="527.7460896426946" y="66.0" font-family="system-ui" font-size="9" fill="#FF3B30">α=10.00</text>
<path d="M568.6535490024628,264.2816188326565 L568.6535490024628,264.2816188326565 L578.0123881957552,265.2575525569093 L583.0875044242873,261.6953413846309 L571.7667531300295,261.3154055915969 L215.56553294245973,186.50928772248233 L193.51480737151024,160.19461264034126 L40.0,128.84090194855204" fill="none" stroke="#007AFF" stroke-width="1.5" opacity="0.5"/>
<circle cx="568.6535490024628" cy="264.2816188326565" r="4" fill="#007AFF"/>
<text x="574.6535490024628" y="260.2816188326565" font-family="system-ui" font-size="9" fill="#007AFF">α=0.05</text>
<circle cx="578.0123881957552" cy="265.2575525569093" r="4" fill="#007AFF"/>
<circle cx="583.0875044242873" cy="261.6953413846309" r="4" fill="#007AFF"/>
<circle cx="571.7667531300295" cy="261.3154055915969" r="4" fill="#007AFF"/>
<circle cx="215.56553294245973" cy="186.50928772248233" r="4" fill="#007AFF"/>
<circle cx="193.51480737151024" cy="160.19461264034126" r="4" fill="#007AFF"/>
<circle cx="40.0" cy="128.84090194855204" r="4" fill="#007AFF"/>
<text x="46.0" y="124.84090194855204" font-family="system-ui" font-size="9" fill="#007AFF">α=10.00</text>
<circle cx="50" cy="82" r="4" fill="#007AFF"/>
<text x="60" y="86" font-family="system-ui" font-size="11" fill="#333">Shield ON (V2 column cap)</text>
<circle cx="50" cy="100" r="4" fill="#FF3B30"/>
<text x="60" y="104" font-family="system-ui" font-size="11" fill="#333">Shield OFF</text>
<text x="320.0" y="392" text-anchor="middle" font-family="system-ui" font-size="11" fill="#666">Counter-Prior Lift (nats)</text>
<text x="14" y="200.0" text-anchor="middle" font-family="system-ui" font-size="10" fill="#666" transform="rotate(-90,14,200.0)">NLL Drift (nats)</text>
</svg>
