<svg xmlns="http://www.w3.org/2000/svg" viewBox="0 0 640 400">
<rect width="640" height="400" fill="white"/>
<text x="320.0" y="22" text-anchor="middle" font-family="system-ui" font-size="14" fill="#1a1a2e">mHC Shield: Counter-Prior Lift vs NLL Drift — Gemma-4-E2B</text>
<line x1="40" y1="350" x2="600" y2="350" stroke="#ccc" stroke-width="1"/>
<line x1="40" y1="350" x2="40" y2="70" stroke="#ccc" stroke-width="1"/>
<line x1="40" y1="339.60633529909626" x2="600" y2="339.60633529909626" stroke="#FF3B30" stroke-width="1" stroke-dasharray="4,4"/>
<text x="604" y="343.60633529909626" font-family="system-ui" font-size="10" fill="#FF3B30">0.5 nats</text>
<path d="M448.8119394165615,192.08139531835693 L448.8119394165615,192.08139531835693 L413.3704789022819,232.06740816082132 L129.32083357630262,141.4550174660779 L63.1977750161564,129.85402059128864 L82.2181263090975,120.01032526855215 L398.55007089272965,94.78230109680922 L415.89613593219013,70.0" fill="none" stroke="#FF3B30" stroke-width="1.5" opacity="0.5"/>
<circle cx="448.8119394165615" cy="192.08139531835693" r="4" fill="#FF3B30"/>
<text x="454.8119394165615" y="188.08139531835693" font-family="system-ui" font-size="9" fill="#FF3B30">α=0.05</text>
<circle cx="413.3704789022819" cy="232.06740816082132" r="4" fill="#FF3B30"/>
<circle cx="129.32083357630262" cy="141.4550174660779" r="4" fill="#FF3B30"/>
<circle cx="63.1977750161564" cy="129.85402059128864" r="4" fill="#FF3B30"/>
<circle cx="82.2181263090975" cy="120.01032526855215" r="4" fill="#FF3B30"/>
<circle cx="398.55007089272965" cy="94.78230109680922" r="4" fill="#FF3B30"/>
<circle cx="415.89613593219013" cy="70.0" r="4" fill="#FF3B30"/>
<text x="421.89613593219013" y="66.0" font-family="system-ui" font-size="9" fill="#FF3B30">α=10.00</text>
<path d="M491.18491602121986,195.51785953882856 L491.18491602121986,195.51785953882856 L420.486659917184,189.8272945128238 L584.0999303055336,191.41409804917515 L188.69597616241606,159.8983265633915 L40.0,117.32385927763514 L60.53120081896371,111.48744161029447 L256.3164155579176,106.14108168107927" fill="none" stroke="#007AFF" stroke-width="1.5" opacity="0.5"/>
<circle cx="491.18491602121986" cy="195.51785953882856" r="4" fill="#007AFF"/>
<text x="497.18491602121986" y="191.51785953882856" font-family="system-ui" font-size="9" fill="#007AFF">α=0.05</text>
<circle cx="420.486659917184" cy="189.8272945128238" r="4" fill="#007AFF"/>
<circle cx="584.0999303055336" cy="191.41409804917515" r="4" fill="#007AFF"/>
<circle cx="188.69597616241606" cy="159.8983265633915" r="4" fill="#007AFF"/>
<circle cx="40.0" cy="117.32385927763514" r="4" fill="#007AFF"/>
<circle cx="60.53120081896371" cy="111.48744161029447" r="4" fill="#007AFF"/>
<circle cx="256.3164155579176" cy="106.14108168107927" r="4" fill="#007AFF"/>
<text x="262.3164155579176" y="102.14108168107927" font-family="system-ui" font-size="9" fill="#007AFF">α=10.00</text>
<circle cx="50" cy="82" r="4" fill="#007AFF"/>
<text x="60" y="86" font-family="system-ui" font-size="11" fill="#333">Shield ON (V2 column cap)</text>
<circle cx="50" cy="100" r="4" fill="#FF3B30"/>
<text x="60" y="104" font-family="system-ui" font-size="11" fill="#333">Shield OFF</text>
<text x="320.0" y="392" text-anchor="middle" font-family="system-ui" font-size="11" fill="#666">Counter-Prior Lift (nats)</text>
<text x="14" y="200.0" text-anchor="middle" font-family="system-ui" font-size="10" fill="#666" transform="rotate(-90,14,200.0)">NLL Drift (nats)</text>
</svg>
