<svg xmlns="http://www.w3.org/2000/svg" viewBox="0 0 720 420" font-family="Helvetica, Arial, sans-serif" font-size="13">
  <rect width="720" height="420" fill="#ffffff"/>
  <text x="360.0" y="22" text-anchor="middle" font-size="16" font-weight="bold">Stage 9B — Full LAMA-TREx (183 facts, 7 relations)</text>
  <line x1="70" y1="350" x2="690" y2="350" stroke="#333"/>
  <line x1="70" y1="60" x2="70" y2="350" stroke="#333"/>
  <line x1="66" y1="350" x2="70" y2="350" stroke="#333"/>
  <text x="62" y="354" text-anchor="end">0.00</text>
  <line x1="66" y1="277.5" x2="70" y2="277.5" stroke="#333"/>
  <text x="62" y="281.5" text-anchor="end">0.25</text>
  <line x1="66" y1="205.0" x2="70" y2="205.0" stroke="#333"/>
  <text x="62" y="209.0" text-anchor="end">0.50</text>
  <line x1="66" y1="132.5" x2="70" y2="132.5" stroke="#333"/>
  <text x="62" y="136.5" text-anchor="end">0.75</text>
  <line x1="66" y1="60.0" x2="70" y2="60.0" stroke="#333"/>
  <text x="62" y="64.0" text-anchor="end">1.00</text>
  <rect x="95.83333333333334" y="60.0" width="103.33333333333333" height="290.0" fill="#1f77b4" opacity="0.85"/>
  <text x="147.5" y="57.0" text-anchor="middle" font-size="11">1.000</text>
  <text x="147.5" y="368" text-anchor="middle">retrieved</text>
  <text x="147.5" y="382" text-anchor="middle">top-1</text>
  <rect x="250.83333333333334" y="60.0" width="103.33333333333333" height="290.0" fill="#2ca02c" opacity="0.85"/>
  <text x="302.5" y="57.0" text-anchor="middle" font-size="11">1.000</text>
  <text x="302.5" y="368" text-anchor="middle">recall@1</text>
  <rect x="405.8333333333333" y="60.0" width="103.33333333333333" height="290.0" fill="#9467bd" opacity="0.85"/>
  <text x="457.5" y="57.0" text-anchor="middle" font-size="11">1.000</text>
  <text x="457.5" y="368" text-anchor="middle">oracle</text>
  <text x="457.5" y="382" text-anchor="middle">top-1</text>
  <rect x="560.8333333333334" y="63.09829059829059" width="103.33333333333333" height="286.9017094017094" fill="#d62728" opacity="0.85"/>
  <line x1="612.5" y1="60.258660359963244" x2="612.5" y2="65.93792083661793" stroke="#000" stroke-width="1.2"/>
  <text x="612.5" y="60.09829059829059" text-anchor="middle" font-size="11">0.989</text>
  <text x="612.5" y="368" text-anchor="middle">swap</text>
  <text x="612.5" y="382" text-anchor="middle">flip-rate</text>
</svg>
