<svg xmlns="http://www.w3.org/2000/svg" viewBox="0 0 820 460" width="820" height="460" role="img" aria-label="Stage 7A linear probe negative"><rect x="0" y="0" width="820" height="460" fill="white"/><text x="40.0" y="30.0" text-anchor="start" style="fill:#0f172a;font-family:ui-sans-serif, -apple-system, Segoe UI, Roboto, Helvetica, Arial, sans-serif;font-size:15px;font-weight:600;">Figure 4. Stage 7A — linear probes on hidden states cannot recover answer identity</text><text x="40.0" y="50.0" text-anchor="start" style="fill:#64748b;font-family:ui-sans-serif, -apple-system, Segoe UI, Roboto, Helvetica, Arial, sans-serif;font-size:11px;font-weight:normal;">Each dot = one (span × layer × pool × readout) cell. Y = held-out top-1 of a closed-vocab probe trained on frozen Gemma hidden states. Dashed line = strict probe gate (0.85).</text><line x1="100.0" y1="90.0" x2="100.0" y2="380.0" stroke="#1e293b" stroke-width="1.5"/><line x1="96.0" y1="380.0" x2="100.0" y2="380.0" stroke="#1e293b" stroke-width="1"/><line x1="100.0" y1="380.0" x2="800.0" y2="380.0" stroke="#e2e8f0" stroke-width="1"/><text x="92.0" y="384.0" text-anchor="end" style="fill:#64748b;font-family:ui-sans-serif, -apple-system, Segoe UI, Roboto, Helvetica, Arial, sans-serif;font-size:10px;font-weight:normal;">0.00</text><line x1="96.0" y1="322.0" x2="100.0" y2="322.0" stroke="#1e293b" stroke-width="1"/><line x1="100.0" y1="322.0" x2="800.0" y2="322.0" stroke="#e2e8f0" stroke-width="1"/><text x="92.0" y="326.0" text-anchor="end" style="fill:#64748b;font-family:ui-sans-serif, -apple-system, Segoe UI, Roboto, Helvetica, Arial, sans-serif;font-size:10px;font-weight:normal;">0.20</text><line x1="96.0" y1="264.0" x2="100.0" y2="264.0" stroke="#1e293b" stroke-width="1"/><line x1="100.0" y1="264.0" x2="800.0" y2="264.0" stroke="#e2e8f0" stroke-width="1"/><text x="92.0" y="268.0" text-anchor="end" style="fill:#64748b;font-family:ui-sans-serif, -apple-system, Segoe UI, Roboto, Helvetica, Arial, sans-serif;font-size:10px;font-weight:normal;">0.40</text><line x1="96.0" y1="206.0" x2="100.0" y2="206.0" stroke="#1e293b" stroke-width="1"/><line x1="100.0" y1="206.0" x2="800.0" y2="206.0" stroke="#e2e8f0" stroke-width="1"/><text x="92.0" y="210.0" text-anchor="end" style="fill:#64748b;font-family:ui-sans-serif, -apple-system, Segoe UI, Roboto, Helvetica, Arial, sans-serif;font-size:10px;font-weight:normal;">0.60</text><line x1="96.0" y1="148.0" x2="100.0" y2="148.0" stroke="#1e293b" stroke-width="1"/><line x1="100.0" y1="148.0" x2="800.0" y2="148.0" stroke="#e2e8f0" stroke-width="1"/><text x="92.0" y="152.0" text-anchor="end" style="fill:#64748b;font-family:ui-sans-serif, -apple-system, Segoe UI, Roboto, Helvetica, Arial, sans-serif;font-size:10px;font-weight:normal;">0.80</text><line x1="96.0" y1="90.0" x2="100.0" y2="90.0" stroke="#1e293b" stroke-width="1"/><line x1="100.0" y1="90.0" x2="800.0" y2="90.0" stroke="#e2e8f0" stroke-width="1"/><text x="92.0" y="94.0" text-anchor="end" style="fill:#64748b;font-family:ui-sans-serif, -apple-system, Segoe UI, Roboto, Helvetica, Arial, sans-serif;font-size:10px;font-weight:normal;">1.00</text><text x="62" y="235.0" text-anchor="middle" style="fill:#0f172a;font-family:ui-sans-serif, -apple-system, Segoe UI, Roboto, Helvetica, Arial, sans-serif;font-size:12px;font-weight:600;" transform="rotate(-90 62 235.0)">held-out top-1 accuracy</text><line x1="100.0" y1="133.5" x2="800.0" y2="133.5" stroke="#dc2626" stroke-width="1.5" stroke-dasharray="6 4"/><text x="796.0" y="129.5" text-anchor="end" style="fill:#dc2626;font-family:ui-sans-serif, -apple-system, Segoe UI, Roboto, Helvetica, Arial, sans-serif;font-size:10px;font-weight:normal;">probe gate = 0.85</text><circle cx="336.1" cy="352.8" r="3" fill="#ea580c"/><circle cx="323.3" cy="352.8" r="3" fill="#ea580c"/><circle cx="273.2" cy="361.9" r="3" fill="#ea580c"/><circle cx="249.2" cy="361.9" r="3" fill="#ea580c"/><circle cx="286.7" cy="361.9" r="3" fill="#ea580c"/><circle cx="270.9" cy="370.9" r="3" fill="#ea580c"/><circle cx="327.1" cy="370.9" r="3" fill="#ea580c"/><circle cx="255.8" cy="370.9" r="3" fill="#ea580c"/><circle cx="281.5" cy="370.9" r="3" fill="#ea580c"/><circle cx="297.4" cy="370.9" r="3" fill="#ea580c"/><circle cx="345.6" cy="380.0" r="3" fill="#ea580c"/><circle cx="285.7" cy="380.0" r="3" fill="#ea580c"/><circle cx="252.6" cy="380.0" r="3" fill="#ea580c"/><circle cx="323.0" cy="380.0" r="3" fill="#ea580c"/><circle cx="302.6" cy="380.0" r="3" fill="#ea580c"/><circle cx="248.0" cy="380.0" r="3" fill="#ea580c"/><line x1="179.4" y1="370.4" x2="390.6" y2="370.4" stroke="#0f172a" stroke-width="2"/><text x="397.2" y="374.4" text-anchor="start" style="fill:#0f172a;font-family:ui-sans-serif, -apple-system, Segoe UI, Roboto, Helvetica, Arial, sans-serif;font-size:10px;font-weight:normal;">mean=0.033</text><line x1="225.6" y1="352.8" x2="344.4" y2="352.8" stroke="#dc2626" stroke-width="1.5" stroke-dasharray="3 2"/><text x="351.0" y="356.8" text-anchor="start" style="fill:#dc2626;font-family:ui-sans-serif, -apple-system, Segoe UI, Roboto, Helvetica, Arial, sans-serif;font-size:10px;font-weight:normal;">max=0.094</text><text x="285.0" y="398.0" text-anchor="middle" style="fill:#0f172a;font-family:ui-sans-serif, -apple-system, Segoe UI, Roboto, Helvetica, Arial, sans-serif;font-size:11px;font-weight:normal;">synthetic single-token codes</text><text x="285.0" y="411.0" text-anchor="middle" style="fill:#0f172a;font-family:ui-sans-serif, -apple-system, Segoe UI, Roboto, Helvetica, Arial, sans-serif;font-size:11px;font-weight:normal;">(16 cells × 32-vocab)</text><circle cx="675.8" cy="380.0" r="3" fill="#2563eb"/><circle cx="686.7" cy="380.0" r="3" fill="#2563eb"/><circle cx="661.1" cy="380.0" r="3" fill="#2563eb"/><circle cx="674.7" cy="380.0" r="3" fill="#2563eb"/><circle cx="586.8" cy="380.0" r="3" fill="#2563eb"/><circle cx="649.1" cy="380.0" r="3" fill="#2563eb"/><circle cx="674.2" cy="380.0" r="3" fill="#2563eb"/><circle cx="642.3" cy="380.0" r="3" fill="#2563eb"/><circle cx="610.9" cy="380.0" r="3" fill="#2563eb"/><circle cx="555.7" cy="380.0" r="3" fill="#2563eb"/><circle cx="605.2" cy="380.0" r="3" fill="#2563eb"/><circle cx="631.5" cy="380.0" r="3" fill="#2563eb"/><circle cx="676.3" cy="380.0" r="3" fill="#2563eb"/><circle cx="684.3" cy="380.0" r="3" fill="#2563eb"/><circle cx="611.6" cy="380.0" r="3" fill="#2563eb"/><circle cx="669.2" cy="380.0" r="3" fill="#2563eb"/><circle cx="579.4" cy="380.0" r="3" fill="#2563eb"/><circle cx="660.3" cy="380.0" r="3" fill="#2563eb"/><circle cx="622.2" cy="380.0" r="3" fill="#2563eb"/><circle cx="542.8" cy="380.0" r="3" fill="#2563eb"/><circle cx="647.6" cy="380.0" r="3" fill="#2563eb"/><circle cx="600.0" cy="380.0" r="3" fill="#2563eb"/><circle cx="663.2" cy="380.0" r="3" fill="#2563eb"/><circle cx="640.0" cy="380.0" r="3" fill="#2563eb"/><circle cx="540.9" cy="380.0" r="3" fill="#2563eb"/><circle cx="614.0" cy="380.0" r="3" fill="#2563eb"/><circle cx="669.6" cy="380.0" r="3" fill="#2563eb"/><circle cx="577.0" cy="380.0" r="3" fill="#2563eb"/><circle cx="589.0" cy="380.0" r="3" fill="#2563eb"/><circle cx="670.0" cy="380.0" r="3" fill="#2563eb"/><circle cx="569.1" cy="380.0" r="3" fill="#2563eb"/><circle cx="625.0" cy="380.0" r="3" fill="#2563eb"/><circle cx="576.2" cy="380.0" r="3" fill="#2563eb"/><circle cx="684.4" cy="380.0" r="3" fill="#2563eb"/><circle cx="660.0" cy="380.0" r="3" fill="#2563eb"/><circle cx="607.3" cy="380.0" r="3" fill="#2563eb"/><circle cx="552.7" cy="380.0" r="3" fill="#2563eb"/><circle cx="588.3" cy="380.0" r="3" fill="#2563eb"/><circle cx="616.2" cy="380.0" r="3" fill="#2563eb"/><circle cx="679.3" cy="380.0" r="3" fill="#2563eb"/><circle cx="556.9" cy="380.0" r="3" fill="#2563eb"/><circle cx="622.6" cy="380.0" r="3" fill="#2563eb"/><circle cx="645.7" cy="380.0" r="3" fill="#2563eb"/><circle cx="622.0" cy="380.0" r="3" fill="#2563eb"/><circle cx="661.7" cy="380.0" r="3" fill="#2563eb"/><circle cx="621.0" cy="380.0" r="3" fill="#2563eb"/><circle cx="683.9" cy="380.0" r="3" fill="#2563eb"/><circle cx="630.3" cy="380.0" r="3" fill="#2563eb"/><circle cx="628.0" cy="380.0" r="3" fill="#2563eb"/><circle cx="606.8" cy="380.0" r="3" fill="#2563eb"/><circle cx="629.3" cy="380.0" r="3" fill="#2563eb"/><circle cx="597.9" cy="380.0" r="3" fill="#2563eb"/><circle cx="626.2" cy="380.0" r="3" fill="#2563eb"/><circle cx="583.9" cy="380.0" r="3" fill="#2563eb"/><circle cx="568.9" cy="380.0" r="3" fill="#2563eb"/><circle cx="568.5" cy="380.0" r="3" fill="#2563eb"/><circle cx="631.7" cy="380.0" r="3" fill="#2563eb"/><circle cx="638.3" cy="380.0" r="3" fill="#2563eb"/><circle cx="611.5" cy="380.0" r="3" fill="#2563eb"/><circle cx="554.1" cy="380.0" r="3" fill="#2563eb"/><circle cx="653.3" cy="380.0" r="3" fill="#2563eb"/><circle cx="671.0" cy="380.0" r="3" fill="#2563eb"/><circle cx="677.9" cy="380.0" r="3" fill="#2563eb"/><circle cx="665.9" cy="380.0" r="3" fill="#2563eb"/><circle cx="674.1" cy="380.0" r="3" fill="#2563eb"/><circle cx="677.8" cy="380.0" r="3" fill="#2563eb"/><circle cx="621.0" cy="380.0" r="3" fill="#2563eb"/><circle cx="598.9" cy="380.0" r="3" fill="#2563eb"/><circle cx="645.5" cy="380.0" r="3" fill="#2563eb"/><circle cx="581.7" cy="380.0" r="3" fill="#2563eb"/><circle cx="661.3" cy="380.0" r="3" fill="#2563eb"/><circle cx="666.9" cy="380.0" r="3" fill="#2563eb"/><circle cx="673.7" cy="380.0" r="3" fill="#2563eb"/><circle cx="628.3" cy="380.0" r="3" fill="#2563eb"/><circle cx="681.8" cy="380.0" r="3" fill="#2563eb"/><circle cx="626.8" cy="380.0" r="3" fill="#2563eb"/><circle cx="607.7" cy="380.0" r="3" fill="#2563eb"/><circle cx="638.8" cy="380.0" r="3" fill="#2563eb"/><circle cx="688.7" cy="380.0" r="3" fill="#2563eb"/><circle cx="676.9" cy="380.0" r="3" fill="#2563eb"/><circle cx="658.6" cy="380.0" r="3" fill="#2563eb"/><circle cx="553.0" cy="380.0" r="3" fill="#2563eb"/><circle cx="631.7" cy="380.0" r="3" fill="#2563eb"/><circle cx="613.0" cy="380.0" r="3" fill="#2563eb"/><circle cx="634.3" cy="380.0" r="3" fill="#2563eb"/><circle cx="666.2" cy="380.0" r="3" fill="#2563eb"/><circle cx="576.8" cy="380.0" r="3" fill="#2563eb"/><circle cx="649.4" cy="380.0" r="3" fill="#2563eb"/><circle cx="558.1" cy="380.0" r="3" fill="#2563eb"/><circle cx="573.5" cy="380.0" r="3" fill="#2563eb"/><circle cx="658.7" cy="380.0" r="3" fill="#2563eb"/><circle cx="590.1" cy="380.0" r="3" fill="#2563eb"/><circle cx="661.9" cy="380.0" r="3" fill="#2563eb"/><circle cx="555.7" cy="380.0" r="3" fill="#2563eb"/><circle cx="562.5" cy="380.0" r="3" fill="#2563eb"/><circle cx="644.4" cy="380.0" r="3" fill="#2563eb"/><circle cx="547.5" cy="380.0" r="3" fill="#2563eb"/><circle cx="626.0" cy="380.0" r="3" fill="#2563eb"/><circle cx="675.9" cy="380.0" r="3" fill="#2563eb"/><circle cx="620.1" cy="380.0" r="3" fill="#2563eb"/><circle cx="641.8" cy="380.0" r="3" fill="#2563eb"/><circle cx="544.7" cy="380.0" r="3" fill="#2563eb"/><circle cx="635.0" cy="380.0" r="3" fill="#2563eb"/><circle cx="630.8" cy="380.0" r="3" fill="#2563eb"/><circle cx="626.3" cy="380.0" r="3" fill="#2563eb"/><circle cx="598.8" cy="380.0" r="3" fill="#2563eb"/><circle cx="595.7" cy="380.0" r="3" fill="#2563eb"/><circle cx="686.4" cy="380.0" r="3" fill="#2563eb"/><circle cx="546.2" cy="380.0" r="3" fill="#2563eb"/><circle cx="544.0" cy="380.0" r="3" fill="#2563eb"/><circle cx="683.5" cy="380.0" r="3" fill="#2563eb"/><circle cx="568.2" cy="380.0" r="3" fill="#2563eb"/><circle cx="559.1" cy="380.0" r="3" fill="#2563eb"/><circle cx="572.0" cy="380.0" r="3" fill="#2563eb"/><circle cx="659.7" cy="380.0" r="3" fill="#2563eb"/><circle cx="679.9" cy="380.0" r="3" fill="#2563eb"/><circle cx="544.1" cy="380.0" r="3" fill="#2563eb"/><circle cx="604.0" cy="380.0" r="3" fill="#2563eb"/><circle cx="555.8" cy="380.0" r="3" fill="#2563eb"/><circle cx="579.3" cy="380.0" r="3" fill="#2563eb"/><line x1="509.4" y1="380.0" x2="720.6" y2="380.0" stroke="#0f172a" stroke-width="2"/><text x="727.2" y="384.0" text-anchor="start" style="fill:#0f172a;font-family:ui-sans-serif, -apple-system, Segoe UI, Roboto, Helvetica, Arial, sans-serif;font-size:10px;font-weight:normal;">mean=0.000</text><line x1="555.6" y1="380.0" x2="674.4" y2="380.0" stroke="#dc2626" stroke-width="1.5" stroke-dasharray="3 2"/><text x="681.0" y="384.0" text-anchor="start" style="fill:#dc2626;font-family:ui-sans-serif, -apple-system, Segoe UI, Roboto, Helvetica, Arial, sans-serif;font-size:10px;font-weight:normal;">max=0.000</text><text x="615.0" y="398.0" text-anchor="middle" style="fill:#0f172a;font-family:ui-sans-serif, -apple-system, Segoe UI, Roboto, Helvetica, Arial, sans-serif;font-size:11px;font-weight:normal;">LAMA disjoint countries</text><text x="615.0" y="411.0" text-anchor="middle" style="fill:#0f172a;font-family:ui-sans-serif, -apple-system, Segoe UI, Roboto, Helvetica, Arial, sans-serif;font-size:11px;font-weight:normal;">(120 cells × 46-vocab)</text><text x="40.0" y="430.0" text-anchor="start" style="fill:#0f172a;font-family:ui-sans-serif, -apple-system, Segoe UI, Roboto, Helvetica, Arial, sans-serif;font-size:11px;font-weight:normal;font-style:italic;">Negative confirmed: no (span, layer, pool, readout) cell crosses 0.85. The synthetic case is a representation limit; the LAMA disjoint case is a closed-vocab projector flaw (REPORT.md). Linear-probe gate must be skipped.</text></svg>