<svg xmlns="http://www.w3.org/2000/svg" viewBox="0 0 800 440" font-family="ui-sans-serif, -apple-system, Segoe UI, Roboto, Helvetica, Arial, sans-serif" font-size="13">
<rect width="800" height="440" fill="white"/>
<text x="400.0" y="26" text-anchor="middle" font-size="16" font-weight="600">Stage 8 v3 closed-book capacity (Gemma-4-E2B, frozen, NVIDIA GB10/CUDA, mean ± std over 3 seeds)</text>
<line x1="70" y1="50" x2="70" y2="380" stroke="#333"/>
<line x1="70" y1="380" x2="600" y2="380" stroke="#333"/>
<line x1="66" y1="380.0" x2="70" y2="380.0" stroke="#333"/>
<text x="62" y="384.0" text-anchor="end">0.00</text>
<line x1="70" y1="380.0" x2="600" y2="380.0" stroke="#eee"/>
<line x1="66" y1="297.5" x2="70" y2="297.5" stroke="#333"/>
<text x="62" y="301.5" text-anchor="end">0.25</text>
<line x1="70" y1="297.5" x2="600" y2="297.5" stroke="#eee"/>
<line x1="66" y1="215.0" x2="70" y2="215.0" stroke="#333"/>
<text x="62" y="219.0" text-anchor="end">0.50</text>
<line x1="70" y1="215.0" x2="600" y2="215.0" stroke="#eee"/>
<line x1="66" y1="132.5" x2="70" y2="132.5" stroke="#333"/>
<text x="62" y="136.5" text-anchor="end">0.75</text>
<line x1="70" y1="132.5" x2="600" y2="132.5" stroke="#eee"/>
<line x1="66" y1="50.0" x2="70" y2="50.0" stroke="#333"/>
<text x="62" y="54.0" text-anchor="end">1.00</text>
<line x1="70" y1="50.0" x2="600" y2="50.0" stroke="#eee"/>
<text x="20" y="215.0" text-anchor="middle" transform="rotate(-90 20 215.0)">top-1 / recall / flip rate</text>
<line x1="125.63866425543998" y1="380" x2="125.63866425543998" y2="384" stroke="#333"/>
<text x="125.63866425543998" y="398" text-anchor="middle">N=128</text>
<line x1="376.87226714891204" y1="380" x2="376.87226714891204" y2="384" stroke="#333"/>
<text x="376.87226714891204" y="398" text-anchor="middle">N=1024</text>
<line x1="544.3613357445599" y1="380" x2="544.3613357445599" y2="384" stroke="#333"/>
<text x="544.3613357445599" y="398" text-anchor="middle">N=4096</text>
<text x="335.0" y="424" text-anchor="middle">Number of stored facts (log scale)</text>
<line x1="70" y1="115.99999999999999" x2="600" y2="115.99999999999999" stroke="#d33" stroke-dasharray="4 3" opacity="0.6"/>
<text x="596" y="111.99999999999999" text-anchor="end" fill="#d33" font-size="11">G1 gate = 0.80</text>
<line x1="70" y1="66.50000000000001" x2="600" y2="66.50000000000001" stroke="#7a3" stroke-dasharray="2 2" opacity="0.5"/>
<text x="596" y="62.500000000000014" text-anchor="end" fill="#7a3" font-size="11">GR gate = 0.95</text>
<path d="M 125.6,50.0 L 376.9,50.0 L 544.4,50.0" fill="none" stroke="#0a7" stroke-width="2"/>
<circle cx="125.6" cy="50.0" r="3.5" fill="#0a7" stroke="white" stroke-width="1"/>
<circle cx="376.9" cy="50.0" r="3.5" fill="#0a7" stroke="white" stroke-width="1"/>
<circle cx="544.4" cy="50.0" r="3.5" fill="#0a7" stroke="white" stroke-width="1"/>
<path d="M 125.6,56.9 L 376.9,72.9 L 544.4,105.6" fill="none" stroke="#06c" stroke-width="2"/>
<line x1="125.6" y1="53.9" x2="125.6" y2="59.9" stroke="#06c" stroke-width="1.2"/>
<line x1="122.6" y1="53.9" x2="128.6" y2="53.9" stroke="#06c"/>
<line x1="122.6" y1="59.9" x2="128.6" y2="59.9" stroke="#06c"/>
<circle cx="125.6" cy="56.9" r="3.5" fill="#06c" stroke="white" stroke-width="1"/>
<line x1="376.9" y1="71.5" x2="376.9" y2="74.3" stroke="#06c" stroke-width="1.2"/>
<line x1="373.9" y1="71.5" x2="379.9" y2="71.5" stroke="#06c"/>
<line x1="373.9" y1="74.3" x2="379.9" y2="74.3" stroke="#06c"/>
<circle cx="376.9" cy="72.9" r="3.5" fill="#06c" stroke="white" stroke-width="1"/>
<line x1="544.4" y1="103.8" x2="544.4" y2="107.5" stroke="#06c" stroke-width="1.2"/>
<line x1="541.4" y1="103.8" x2="547.4" y2="103.8" stroke="#06c"/>
<line x1="541.4" y1="107.5" x2="547.4" y2="107.5" stroke="#06c"/>
<circle cx="544.4" cy="105.6" r="3.5" fill="#06c" stroke="white" stroke-width="1"/>
<path d="M 125.6,56.9 L 376.9,73.3 L 544.4,107.4" fill="none" stroke="#a26" stroke-width="2"/>
<line x1="125.6" y1="53.9" x2="125.6" y2="59.9" stroke="#a26" stroke-width="1.2"/>
<line x1="122.6" y1="53.9" x2="128.6" y2="53.9" stroke="#a26"/>
<line x1="122.6" y1="59.9" x2="128.6" y2="59.9" stroke="#a26"/>
<circle cx="125.6" cy="56.9" r="3.5" fill="#a26" stroke="white" stroke-width="1"/>
<line x1="376.9" y1="72.2" x2="376.9" y2="74.4" stroke="#a26" stroke-width="1.2"/>
<line x1="373.9" y1="72.2" x2="379.9" y2="72.2" stroke="#a26"/>
<line x1="373.9" y1="74.4" x2="379.9" y2="74.4" stroke="#a26"/>
<circle cx="376.9" cy="73.3" r="3.5" fill="#a26" stroke="white" stroke-width="1"/>
<line x1="544.4" y1="105.6" x2="544.4" y2="109.2" stroke="#a26" stroke-width="1.2"/>
<line x1="541.4" y1="105.6" x2="547.4" y2="105.6" stroke="#a26"/>
<line x1="541.4" y1="109.2" x2="547.4" y2="109.2" stroke="#a26"/>
<circle cx="544.4" cy="107.4" r="3.5" fill="#a26" stroke="white" stroke-width="1"/>
<path d="M 125.6,50.0 L 376.9,50.0 L 544.4,50.0" fill="none" stroke="#c63" stroke-width="2"/>
<circle cx="125.6" cy="50.0" r="3.5" fill="#c63" stroke="white" stroke-width="1"/>
<circle cx="376.9" cy="50.0" r="3.5" fill="#c63" stroke="white" stroke-width="1"/>
<circle cx="544.4" cy="50.0" r="3.5" fill="#c63" stroke="white" stroke-width="1"/>
<path d="M 125.6,380.0 L 376.9,380.0 L 544.4,380.0" fill="none" stroke="#999" stroke-width="2"/>
<circle cx="125.6" cy="380.0" r="3.5" fill="#999" stroke="white" stroke-width="1"/>
<circle cx="376.9" cy="380.0" r="3.5" fill="#999" stroke="white" stroke-width="1"/>
<circle cx="544.4" cy="380.0" r="3.5" fill="#999" stroke="white" stroke-width="1"/>
<text x="620" y="60" font-weight="600">Channel</text>
<line x1="620" y1="78" x2="644" y2="78" stroke="#0a7" stroke-width="2"/>
<circle cx="632" cy="78" r="3.5" fill="#0a7" stroke="white" stroke-width="1"/>
<text x="650" y="82" font-size="11">Bank inject (oracle slot)</text>
<line x1="620" y1="100" x2="644" y2="100" stroke="#06c" stroke-width="2"/>
<circle cx="632" cy="100" r="3.5" fill="#06c" stroke="white" stroke-width="1"/>
<text x="650" y="104" font-size="11">Bank inject (retrieved slot)</text>
<line x1="620" y1="122" x2="644" y2="122" stroke="#a26" stroke-width="2"/>
<circle cx="632" cy="122" r="3.5" fill="#a26" stroke="white" stroke-width="1"/>
<text x="650" y="126" font-size="11">Address retrieval recall@1</text>
<line x1="620" y1="144" x2="644" y2="144" stroke="#c63" stroke-width="2"/>
<circle cx="632" cy="144" r="3.5" fill="#c63" stroke="white" stroke-width="1"/>
<text x="650" y="148" font-size="11">Swap-paired flip rate</text>
<line x1="620" y1="166" x2="644" y2="166" stroke="#999" stroke-width="2"/>
<circle cx="632" cy="166" r="3.5" fill="#999" stroke="white" stroke-width="1"/>
<text x="650" y="170" font-size="11">No-memory baseline</text>
<text x="400.0" y="428" text-anchor="middle" font-size="11" fill="#555">value-token absent at read time. KeyProjector saturates above N≈1024 (in-batch InfoNCE structural ceiling). Oracle slot perfect throughout.</text>
</svg>